# This file uses centimeters as units for non-parametric coordinates.

mtllib wardrobe_lamp.mtl
g default
v 0.137903 -0.010529 0.165323
v -0.105058 -0.010529 0.165323
v -0.105058 -0.010529 -0.077638
v 0.137903 -0.010529 -0.077638
v 0.122858 0.126123 0.150278
v -0.090013 0.126123 0.150278
v -0.090013 0.126123 -0.062593
v 0.122858 0.126123 -0.062593
v 0.111032 0.092977 0.138452
v -0.078186 0.092977 0.138452
v -0.078186 0.092977 -0.050767
v 0.111032 0.092977 -0.050767
v 0.099206 0.059831 0.126626
v -0.066360 0.059831 0.126626
v -0.066360 0.059831 -0.038940
v 0.099206 0.059831 -0.038940
v -0.010009 -0.119814 0.070142
v 0.044118 -0.119814 0.070142
v -0.010009 0.024526 0.070142
v 0.044118 0.024526 0.070142
v -0.010009 0.024526 0.016015
v 0.044118 0.024526 0.016015
v -0.010009 -0.119814 0.016015
v 0.044118 -0.119814 0.016015
v -0.085861 0.080314 0.149866
v 0.119031 0.080314 0.149866
v -0.085861 0.103144 0.149866
v 0.119031 0.103144 0.149866
v -0.085861 0.103144 -0.063316
v 0.119031 0.103144 -0.063316
v -0.085861 0.080314 -0.063316
v 0.119031 0.080314 -0.063316
vt 0.250000 0.500000
vt 0.375000 0.500000
vt 0.387500 0.550000
vt 0.275000 0.550000
vt 0.500000 0.500000
vt 0.500000 0.550000
vt 0.625000 0.500000
vt 0.612500 0.550000
vt 0.750000 0.500000
vt 0.725000 0.550000
vt 0.400000 0.600000
vt 0.300000 0.600000
vt 0.500000 0.600000
vt 0.600000 0.600000
vt 0.700000 0.600000
vt 0.412500 0.650000
vt 0.325000 0.650000
vt 0.500000 0.650000
vt 0.587500 0.650000
vt 0.675000 0.650000
vt 0.500000 0.000000
vt 0.750000 0.250000
vt 0.500000 0.500000
vt 0.250000 0.250000
vt 0.375000 0.000000
vt 0.625000 0.000000
vt 0.625000 0.250000
vt 0.375000 0.250000
vt 0.625000 0.500000
vt 0.375000 0.500000
vt 0.625000 0.750000
vt 0.375000 0.750000
vt 0.625000 1.000000
vt 0.375000 1.000000
vt 0.875000 0.000000
vt 0.875000 0.250000
vt 0.125000 0.000000
vt 0.125000 0.250000
vt 0.375000 0.000000
vt 0.625000 0.000000
vt 0.625000 0.250000
vt 0.375000 0.250000
vt 0.625000 0.500000
vt 0.375000 0.500000
vt 0.625000 0.750000
vt 0.375000 0.750000
vt 0.625000 1.000000
vt 0.375000 1.000000
vt 0.875000 0.000000
vt 0.875000 0.250000
vt 0.125000 0.000000
vt 0.125000 0.250000
vn -0.698688 -0.153847 -0.698689
vn 0.698688 -0.153847 -0.698689
vn 0.680860 -0.269927 -0.680860
vn -0.680860 -0.269927 -0.680860
vn 0.698689 -0.153847 0.698688
vn 0.680860 -0.269927 0.680860
vn -0.698688 -0.153847 0.698689
vn -0.680860 -0.269927 0.680860
vn -0.631295 -0.450481 0.631295
vn 0.631295 -0.450482 0.631295
vn -0.631295 -0.450481 -0.631295
vn 0.631295 -0.450482 -0.631295
vn -0.631294 -0.450482 0.631295
vn 0.631294 -0.450483 0.631295
vn -0.631294 -0.450482 -0.631295
vn 0.631294 -0.450483 -0.631295
vn 0.000000 1.000000 -0.000000
vn 0.000000 1.000000 -0.000000
vn 0.000000 1.000000 -0.000000
vn 0.000000 1.000000 -0.000000
vn 0.000000 0.000000 1.000000
vn 0.000000 0.000000 1.000000
vn 0.000000 0.000000 1.000000
vn 0.000000 0.000000 1.000000
vn 0.000000 1.000000 0.000000
vn 0.000000 1.000000 0.000000
vn 0.000000 1.000000 0.000000
vn 0.000000 1.000000 0.000000
vn 0.000000 0.000000 -1.000000
vn 0.000000 0.000000 -1.000000
vn 0.000000 0.000000 -1.000000
vn 0.000000 0.000000 -1.000000
vn 0.000000 -1.000000 0.000000
vn 0.000000 -1.000000 0.000000
vn 0.000000 -1.000000 0.000000
vn 0.000000 -1.000000 0.000000
vn 1.000000 0.000000 0.000000
vn 1.000000 0.000000 0.000000
vn 1.000000 0.000000 0.000000
vn 1.000000 0.000000 0.000000
vn -1.000000 0.000000 0.000000
vn -1.000000 0.000000 0.000000
vn -1.000000 0.000000 0.000000
vn -1.000000 0.000000 0.000000
vn 0.000000 0.000000 1.000000
vn 0.000000 0.000000 1.000000
vn 0.000000 0.000000 1.000000
vn 0.000000 0.000000 1.000000
vn 0.000000 1.000000 0.000000
vn 0.000000 1.000000 0.000000
vn 0.000000 1.000000 0.000000
vn 0.000000 1.000000 0.000000
vn 0.000000 0.000000 -1.000000
vn 0.000000 0.000000 -1.000000
vn 0.000000 0.000000 -1.000000
vn 0.000000 0.000000 -1.000000
vn 0.000000 -1.000000 0.000000
vn 0.000000 -1.000000 0.000000
vn 0.000000 -1.000000 0.000000
vn 0.000000 -1.000000 0.000000
vn 1.000000 0.000000 0.000000
vn 1.000000 0.000000 0.000000
vn 1.000000 0.000000 0.000000
vn 1.000000 0.000000 0.000000
vn -1.000000 0.000000 0.000000
vn -1.000000 0.000000 0.000000
vn -1.000000 0.000000 0.000000
vn -1.000000 0.000000 0.000000
s 1
g polySurface2
usemtl pasted__lambert6SG
f 1/1/1 2/2/2 6/3/3 5/4/4
f 2/2/2 3/5/5 7/6/6 6/3/3
f 3/5/5 4/7/7 8/8/8 7/6/6
f 4/7/7 1/9/1 5/10/4 8/8/8
f 5/4/4 6/3/3 10/11/9 9/12/10
f 6/3/3 7/6/6 11/13/11 10/11/9
f 7/6/6 8/8/8 12/14/12 11/13/11
f 8/8/8 5/10/4 9/15/10 12/14/12
f 9/12/10 10/11/9 14/16/13 13/17/14
f 10/11/9 11/13/11 15/18/15 14/16/13
f 11/13/11 12/14/12 16/19/16 15/18/15
f 12/14/12 9/15/10 13/20/14 16/19/16
s off
f 1/21/17 4/22/18 3/23/19 2/24/20
usemtl lambert2SG
f 17/25/21 18/26/22 20/27/23 19/28/24
f 19/28/25 20/27/26 22/29/27 21/30/28
f 21/30/29 22/29/30 24/31/31 23/32/32
f 23/32/33 24/31/34 18/33/35 17/34/36
f 18/26/37 24/35/38 22/36/39 20/27/40
f 23/37/41 17/25/42 19/28/43 21/38/44
usemtl lambert3SG
f 25/39/45 26/40/46 28/41/47 27/42/48
f 27/42/49 28/41/50 30/43/51 29/44/52
f 29/44/53 30/43/54 32/45/55 31/46/56
f 31/46/57 32/45/58 26/47/59 25/48/60
f 26/40/61 32/49/62 30/50/63 28/41/64
f 31/51/65 25/39/66 27/42/67 29/52/68
