# This file uses centimeters as units for non-parametric coordinates.

mtllib tiled_floor.mtl
g default
v -1.000000 0.000000 2.631696
v 0.000000 0.000000 2.631696
v 1.000000 0.000000 2.631696
v -1.000000 0.100000 2.631696
v 0.000000 0.100000 2.631696
v 1.000000 0.100000 2.631696
v -1.000000 0.100000 1.631696
v 0.000000 0.100000 1.631696
v 1.000000 0.100000 1.631696
v -1.000000 0.100000 0.631696
v 0.000000 0.100000 0.631696
v 1.000000 0.100000 0.631696
v -1.000000 0.100000 -0.368304
v 0.000000 0.100000 -0.368304
v 1.000000 0.100000 -0.368304
v -1.000000 0.100000 -1.368304
v 0.000000 0.100000 -1.368304
v 1.000000 0.100000 -1.368304
v -1.000000 0.100000 -2.368304
v 0.000000 0.100000 -2.368304
v 1.000000 0.100000 -2.368304
v -1.000000 0.000000 -2.368304
v 0.000000 0.000000 -2.368304
v 1.000000 0.000000 -2.368304
v -1.000000 0.000000 -1.368304
v 0.000000 0.000000 -1.368304
v 1.000000 0.000000 -1.368304
v -1.000000 0.000000 -0.368304
v 0.000000 0.000000 -0.368304
v 1.000000 0.000000 -0.368304
v -1.000000 0.000000 0.631696
v 0.000000 0.000000 0.631696
v 1.000000 0.000000 0.631696
v -1.000000 0.000000 1.631696
v 0.000000 0.000000 1.631696
v 1.000000 0.000000 1.631696
vt 0.375000 0.000000
vt 0.500000 0.000000
vt 0.625000 0.000000
vt 0.375000 0.250000
vt 0.500000 0.250000
vt 0.625000 0.250000
vt 0.375000 0.275000
vt 0.500000 0.275000
vt 0.625000 0.275000
vt 0.375000 0.300000
vt 0.500000 0.300000
vt 0.625000 0.300000
vt 0.375000 0.325000
vt 0.500000 0.325000
vt 0.625000 0.325000
vt 0.375000 0.350000
vt 0.500000 0.350000
vt 0.625000 0.350000
vt 0.375000 0.375000
vt 0.500000 0.375000
vt 0.625000 0.375000
vt 0.375000 0.875000
vt 0.500000 0.875000
vt 0.625000 0.875000
vt 0.375000 0.900000
vt 0.500000 0.900000
vt 0.625000 0.900000
vt 0.375000 0.925000
vt 0.500000 0.925000
vt 0.625000 0.925000
vt 0.375000 0.950000
vt 0.500000 0.950000
vt 0.625000 0.950000
vt 0.375000 0.975000
vt 0.500000 0.975000
vt 0.625000 0.975000
vt 0.375000 1.000000
vt 0.500000 1.000000
vt 0.625000 1.000000
vt 0.750000 0.000000
vt 0.725000 0.000000
vt 0.700000 0.000000
vt 0.675000 0.000000
vt 0.650000 0.000000
vt 0.750000 0.250000
vt 0.725000 0.250000
vt 0.700000 0.250000
vt 0.675000 0.250000
vt 0.650000 0.250000
vt 0.250000 0.000000
vt 0.275000 0.000000
vt 0.300000 0.000000
vt 0.325000 0.000000
vt 0.350000 0.000000
vt 0.250000 0.250000
vt 0.275000 0.250000
vt 0.300000 0.250000
vt 0.325000 0.250000
vt 0.350000 0.250000
vn 0.000000 0.000000 1.000000
vn 0.000000 0.000000 1.000000
vn 0.000000 0.000000 1.000000
vn 0.000000 0.000000 1.000000
vn 0.000000 0.000000 1.000000
vn 0.000000 0.000000 1.000000
vn 0.000000 1.000000 0.000000
vn 0.000000 1.000000 0.000000
vn 0.000000 1.000000 0.000000
vn 0.000000 1.000000 0.000000
vn 0.000000 1.000000 0.000000
vn 0.000000 1.000000 0.000000
vn 0.000000 1.000000 0.000000
vn 0.000000 1.000000 0.000000
vn 0.000000 1.000000 0.000000
vn 0.000000 1.000000 0.000000
vn 0.000000 1.000000 0.000000
vn 0.000000 1.000000 0.000000
vn 0.000000 1.000000 0.000000
vn 0.000000 1.000000 0.000000
vn 0.000000 1.000000 0.000000
vn 0.000000 1.000000 0.000000
vn 0.000000 1.000000 0.000000
vn 0.000000 1.000000 0.000000
vn 0.000000 -1.000000 0.000000
vn 0.000000 -1.000000 0.000000
vn 0.000000 -1.000000 0.000000
vn 0.000000 -1.000000 0.000000
vn 0.000000 -1.000000 0.000000
vn 0.000000 -1.000000 0.000000
vn 0.000000 -1.000000 0.000000
vn 0.000000 -1.000000 0.000000
vn 0.000000 -1.000000 0.000000
vn 0.000000 -1.000000 0.000000
vn 0.000000 -1.000000 0.000000
vn 0.000000 -1.000000 0.000000
vn 0.000000 -1.000000 0.000000
vn 0.000000 -1.000000 0.000000
vn 0.000000 -1.000000 0.000000
vn 0.000000 -1.000000 0.000000
vn 0.000000 -1.000000 0.000000
vn 0.000000 -1.000000 0.000000
vn 1.000000 0.000000 0.000000
vn 1.000000 0.000000 0.000000
vn 1.000000 0.000000 0.000000
vn 1.000000 0.000000 0.000000
vn 1.000000 0.000000 0.000000
vn 1.000000 0.000000 0.000000
vn 1.000000 0.000000 0.000000
vn 1.000000 0.000000 0.000000
vn 1.000000 0.000000 0.000000
vn 1.000000 0.000000 0.000000
vn 1.000000 0.000000 0.000000
vn 1.000000 0.000000 0.000000
vn -1.000000 0.000000 0.000000
vn -1.000000 0.000000 0.000000
vn -1.000000 0.000000 0.000000
vn -1.000000 0.000000 0.000000
vn -1.000000 0.000000 0.000000
vn -1.000000 0.000000 0.000000
vn -1.000000 0.000000 0.000000
vn -1.000000 0.000000 0.000000
vn -1.000000 0.000000 0.000000
vn -1.000000 0.000000 0.000000
vn -1.000000 0.000000 0.000000
vn -1.000000 0.000000 0.000000
s 1
g pCube1
usemtl lambert4SG
f 1/1/1 2/2/2 5/5/3 4/4/4
usemtl lambert5SG
f 2/2/2 3/3/5 6/6/6 5/5/3
s 2
usemtl lambert4SG
f 4/4/7 5/5/8 8/8/9 7/7/10
usemtl lambert5SG
f 5/5/8 6/6/11 9/9/12 8/8/9
usemtl lambert3SG
f 7/7/10 8/8/9 11/11/13 10/10/14
usemtl lambert4SG
f 8/8/9 9/9/12 12/12/15 11/11/13
f 10/10/14 11/11/13 14/14/16 13/13/17
usemtl lambert5SG
f 11/11/13 12/12/15 15/15/18 14/14/16
usemtl lambert3SG
f 13/13/17 14/14/16 17/17/19 16/16/20
usemtl lambert4SG
f 14/14/16 15/15/18 18/18/21 17/17/19
f 16/16/20 17/17/19 20/20/22 19/19/23
usemtl lambert5SG
f 17/17/19 18/18/21 21/21/24 20/20/22
s 3
usemtl lambert4SG
f 22/22/25 23/23/26 26/26/27 25/25/28
usemtl lambert3SG
f 23/23/26 24/24/29 27/27/30 26/26/27
f 25/25/28 26/26/27 29/29/31 28/28/32
usemtl lambert4SG
f 26/26/27 27/27/30 30/30/33 29/29/31
f 28/28/32 29/29/31 32/32/34 31/31/35
usemtl lambert3SG
f 29/29/31 30/30/33 33/33/36 32/32/34
f 31/31/35 32/32/34 35/35/37 34/34/38
usemtl lambert4SG
f 32/32/34 33/33/36 36/36/39 35/35/37
f 34/34/38 35/35/37 2/38/40 1/37/41
f 35/35/37 36/36/39 3/39/42 2/38/40
s 4
usemtl lambert5SG
f 27/41/43 24/40/44 21/45/45 18/46/46
usemtl lambert4SG
f 30/42/47 27/41/43 18/46/46 15/47/48
usemtl lambert5SG
f 33/43/49 30/42/47 15/47/48 12/48/50
usemtl lambert4SG
f 36/44/51 33/43/49 12/48/50 9/49/52
usemtl lambert5SG
f 3/3/53 36/44/51 9/49/52 6/6/54
s 5
usemtl lambert4SG
f 22/50/55 25/51/56 16/56/57 19/55/58
usemtl lambert3SG
f 25/51/56 28/52/59 13/57/60 16/56/57
usemtl lambert4SG
f 28/52/59 31/53/61 10/58/62 13/57/60
usemtl lambert3SG
f 31/53/61 34/54/63 7/59/64 10/58/62
usemtl lambert4SG
f 34/54/63 1/1/65 4/4/66 7/59/64
