# This file uses centimeters as units for non-parametric coordinates.

mtllib L3.mtl
g default
v 0.047184 0.371644 0.034871
v 0.012674 0.476475 0.036600
v 0.049907 0.484729 0.030858
v 0.075720 0.375635 0.037892
v -0.075895 0.796738 0.034079
v -0.011131 0.814271 0.008557
v -0.121358 0.980812 0.033491
v -0.047018 1.002528 -0.000754
v -0.138372 1.083177 0.044349
v -0.081920 1.102282 -0.001778
v -0.153842 1.136484 0.034882
v -0.096693 1.157565 0.002936
v -0.168946 1.207233 0.024282
v -0.123770 1.223713 0.001672
v -0.164395 1.305378 0.020799
v -0.152041 1.308243 0.023504
v 0.050045 0.484820 0.032173
v 0.012899 0.476566 0.037900
v 0.047318 0.371673 0.036189
v 0.075753 0.375646 0.039218
v -0.075195 0.796799 0.035201
v -0.010452 0.814325 0.009694
v -0.120548 0.980572 0.034490
v -0.046240 1.002292 0.000270
v -0.137380 1.082850 0.045119
v -0.080990 1.102024 -0.000899
v -0.152847 1.136491 0.035746
v -0.095970 1.157673 0.004040
v -0.168194 1.207658 0.025280
v -0.123334 1.224341 0.002729
v -0.164958 1.305763 0.021914
v -0.152731 1.308701 0.024507
vt 0.236300 0.028800
vt 0.229700 0.111500
vt 0.274800 0.110400
vt 0.274800 0.110400
vt 0.271400 0.028800
vt 0.236300 0.028800
vt 0.209100 0.362200
vt 0.286800 0.365800
vt 0.274800 0.110400
vt 0.274800 0.110400
vt 0.229700 0.111500
vt 0.209100 0.362200
vt 0.190900 0.505000
vt 0.279700 0.510500
vt 0.286800 0.365800
vt 0.286800 0.365800
vt 0.209100 0.362200
vt 0.190900 0.505000
vt 0.179300 0.646000
vt 0.272400 0.652600
vt 0.279700 0.510500
vt 0.279700 0.510500
vt 0.190900 0.505000
vt 0.179300 0.646000
vt 0.175400 0.701900
vt 0.267500 0.708700
vt 0.272400 0.652600
vt 0.272400 0.652600
vt 0.179300 0.646000
vt 0.175400 0.701900
vt 0.175500 0.786200
vt 0.257000 0.791300
vt 0.267500 0.708700
vt 0.267500 0.708700
vt 0.175400 0.701900
vt 0.175500 0.786200
vt 0.194700 0.966300
vt 0.221500 0.971400
vt 0.257000 0.791300
vt 0.257000 0.791300
vt 0.175500 0.786200
vt 0.194700 0.966300
vt 0.274800 0.110400
vt 0.229700 0.111500
vt 0.236300 0.028800
vt 0.236300 0.028800
vt 0.271400 0.028800
vt 0.274800 0.110400
vt 0.209100 0.362200
vt 0.229700 0.111500
vt 0.274800 0.110400
vt 0.274800 0.110400
vt 0.286800 0.365800
vt 0.209100 0.362200
vt 0.190900 0.505000
vt 0.209100 0.362200
vt 0.286800 0.365800
vt 0.286800 0.365800
vt 0.279700 0.510500
vt 0.190900 0.505000
vt 0.179300 0.646000
vt 0.190900 0.505000
vt 0.279700 0.510500
vt 0.279700 0.510500
vt 0.272400 0.652600
vt 0.179300 0.646000
vt 0.175400 0.701900
vt 0.179300 0.646000
vt 0.272400 0.652600
vt 0.272400 0.652600
vt 0.267500 0.708700
vt 0.175400 0.701900
vt 0.175500 0.786200
vt 0.175400 0.701900
vt 0.267500 0.708700
vt 0.267500 0.708700
vt 0.257000 0.791300
vt 0.175500 0.786200
vt 0.194700 0.966300
vt 0.175500 0.786200
vt 0.257000 0.791300
vt 0.257000 0.791300
vt 0.221500 0.971400
vt 0.194700 0.966300
vt 0.236300 0.028800
vt 0.236300 0.028800
vt 0.229700 0.111500
vt 0.229700 0.111500
vt 0.229700 0.111500
vt 0.236300 0.028800
vt 0.274800 0.110400
vt 0.274800 0.110400
vt 0.271400 0.028800
vt 0.271400 0.028800
vt 0.271400 0.028800
vt 0.274800 0.110400
vt 0.271400 0.028800
vt 0.271400 0.028800
vt 0.236300 0.028800
vt 0.236300 0.028800
vt 0.236300 0.028800
vt 0.271400 0.028800
vt 0.229700 0.111500
vt 0.229700 0.111500
vt 0.209100 0.362200
vt 0.209100 0.362200
vt 0.209100 0.362200
vt 0.229700 0.111500
vt 0.286800 0.365800
vt 0.286800 0.365800
vt 0.274800 0.110400
vt 0.274800 0.110400
vt 0.274800 0.110400
vt 0.286800 0.365800
vt 0.209100 0.362200
vt 0.209100 0.362200
vt 0.190900 0.505000
vt 0.190900 0.505000
vt 0.190900 0.505000
vt 0.209100 0.362200
vt 0.279700 0.510500
vt 0.279700 0.510500
vt 0.286800 0.365800
vt 0.286800 0.365800
vt 0.286800 0.365800
vt 0.279700 0.510500
vt 0.190900 0.505000
vt 0.190900 0.505000
vt 0.179300 0.646000
vt 0.179300 0.646000
vt 0.179300 0.646000
vt 0.190900 0.505000
vt 0.279700 0.510500
vt 0.272400 0.652600
vt 0.272400 0.652600
vt 0.272400 0.652600
vt 0.279700 0.510500
vt 0.279700 0.510500
vt 0.179300 0.646000
vt 0.179300 0.646000
vt 0.175400 0.701900
vt 0.175400 0.701900
vt 0.175400 0.701900
vt 0.179300 0.646000
vt 0.272400 0.652600
vt 0.267500 0.708700
vt 0.267500 0.708700
vt 0.267500 0.708700
vt 0.272400 0.652600
vt 0.272400 0.652600
vt 0.175400 0.701900
vt 0.175400 0.701900
vt 0.175500 0.786200
vt 0.175500 0.786200
vt 0.175500 0.786200
vt 0.175400 0.701900
vt 0.257000 0.791300
vt 0.257000 0.791300
vt 0.267500 0.708700
vt 0.267500 0.708700
vt 0.267500 0.708700
vt 0.257000 0.791300
vt 0.194700 0.966300
vt 0.175500 0.786200
vt 0.175500 0.786200
vt 0.175500 0.786200
vt 0.194700 0.966300
vt 0.194700 0.966300
vt 0.194700 0.966300
vt 0.194700 0.966300
vt 0.221500 0.971400
vt 0.221500 0.971400
vt 0.221500 0.971400
vt 0.194700 0.966300
vt 0.221500 0.971400
vt 0.221500 0.971400
vt 0.257000 0.791300
vt 0.257000 0.791300
vt 0.257000 0.791300
vt 0.221500 0.971400
vn -0.433109 -0.694515 -0.574513
vn -0.785924 -0.235507 -0.571717
vn 0.593094 0.106999 -0.797992
vn 0.593094 0.106999 -0.797992
vn 0.699108 -0.482905 -0.527306
vn -0.433109 -0.694515 -0.574513
vn -0.913083 -0.249295 -0.322694
vn 0.328506 0.012600 -0.944418
vn 0.593094 0.106999 -0.797992
vn 0.593094 0.106999 -0.797992
vn -0.785924 -0.235507 -0.571717
vn -0.913083 -0.249295 -0.322694
vn -0.942113 -0.187303 -0.278104
vn 0.266198 0.086899 -0.959993
vn 0.328506 0.012600 -0.944418
vn 0.328506 0.012600 -0.944418
vn -0.913083 -0.249295 -0.322694
vn -0.942113 -0.187303 -0.278104
vn -0.970403 -0.240001 0.026800
vn 0.090103 0.034401 -0.995338
vn 0.266198 0.086899 -0.959993
vn 0.266198 0.086899 -0.959993
vn -0.942113 -0.187303 -0.278104
vn -0.970403 -0.240001 0.026800
vn -0.972079 -0.215395 -0.093098
vn 0.265005 0.116202 -0.957220
vn 0.090103 0.034401 -0.995338
vn 0.090103 0.034401 -0.995338
vn -0.970403 -0.240001 0.026800
vn -0.972079 -0.215395 -0.093098
vn -0.963422 -0.111903 -0.243506
vn 0.228807 0.161805 -0.959930
vn 0.265005 0.116202 -0.957220
vn 0.265005 0.116202 -0.957220
vn -0.972079 -0.215395 -0.093098
vn -0.963422 -0.111903 -0.243506
vn -0.443410 0.465410 -0.766017
vn 0.679004 0.659504 -0.322502
vn 0.228807 0.161805 -0.959930
vn 0.228807 0.161805 -0.959930
vn -0.963422 -0.111903 -0.243506
vn -0.443410 0.465410 -0.766017
vn 0.770518 0.168604 0.614715
vn -0.559601 -0.171600 0.810802
vn -0.420613 -0.682421 0.597818
vn -0.420613 -0.682421 0.597818
vn 0.650697 -0.442198 0.617297
vn 0.770518 0.168604 0.614715
vn -0.321801 -0.071500 0.944104
vn -0.559601 -0.171600 0.810802
vn 0.770518 0.168604 0.614715
vn 0.770518 0.168604 0.614715
vn 0.929006 0.185001 0.320502
vn -0.321801 -0.071500 0.944104
vn -0.266003 -0.096701 0.959110
vn -0.321801 -0.071500 0.944104
vn 0.929006 0.185001 0.320502
vn 0.929006 0.185001 0.320502
vn 0.950026 0.210406 0.230606
vn -0.266003 -0.096701 0.959110
vn -0.041901 0.044901 0.998112
vn -0.266003 -0.096701 0.959110
vn 0.950026 0.210406 0.230606
vn 0.950026 0.210406 0.230606
vn 0.942004 0.322801 0.091800
vn -0.041901 0.044901 0.998112
vn -0.125797 0.095198 0.987478
vn -0.041901 0.044901 0.998112
vn 0.942004 0.322801 0.091800
vn 0.942004 0.322801 0.091800
vn 0.913024 0.304508 0.271407
vn -0.125797 0.095198 0.987478
vn -0.296500 0.074800 0.952099
vn -0.125797 0.095198 0.987478
vn 0.913024 0.304508 0.271407
vn 0.913024 0.304508 0.271407
vn 0.903848 0.353719 0.240713
vn -0.296500 0.074800 0.952099
vn -0.755587 0.523691 0.393493
vn -0.296500 0.074800 0.952099
vn 0.903848 0.353719 0.240713
vn 0.903848 0.353719 0.240713
vn 0.174902 0.749308 0.638707
vn -0.755587 0.523691 0.393493
vn -0.433109 -0.694515 -0.574513
vn -0.420613 -0.682421 0.597818
vn -0.559601 -0.171600 0.810802
vn -0.559601 -0.171600 0.810802
vn -0.785924 -0.235507 -0.571717
vn -0.433109 -0.694515 -0.574513
vn 0.593094 0.106999 -0.797992
vn 0.770518 0.168604 0.614715
vn 0.650697 -0.442198 0.617297
vn 0.650697 -0.442198 0.617297
vn 0.699108 -0.482905 -0.527306
vn 0.593094 0.106999 -0.797992
vn 0.699108 -0.482905 -0.527306
vn 0.650697 -0.442198 0.617297
vn -0.420613 -0.682421 0.597818
vn -0.420613 -0.682421 0.597818
vn -0.433109 -0.694515 -0.574513
vn 0.699108 -0.482905 -0.527306
vn -0.785924 -0.235507 -0.571717
vn -0.559601 -0.171600 0.810802
vn -0.321801 -0.071500 0.944104
vn -0.321801 -0.071500 0.944104
vn -0.913083 -0.249295 -0.322694
vn -0.785924 -0.235507 -0.571717
vn 0.328506 0.012600 -0.944418
vn 0.929006 0.185001 0.320502
vn 0.770518 0.168604 0.614715
vn 0.770518 0.168604 0.614715
vn 0.593094 0.106999 -0.797992
vn 0.328506 0.012600 -0.944418
vn -0.913083 -0.249295 -0.322694
vn -0.321801 -0.071500 0.944104
vn -0.266003 -0.096701 0.959110
vn -0.266003 -0.096701 0.959110
vn -0.942113 -0.187303 -0.278104
vn -0.913083 -0.249295 -0.322694
vn 0.266198 0.086899 -0.959993
vn 0.950026 0.210406 0.230606
vn 0.929006 0.185001 0.320502
vn 0.929006 0.185001 0.320502
vn 0.328506 0.012600 -0.944418
vn 0.266198 0.086899 -0.959993
vn -0.942113 -0.187303 -0.278104
vn -0.266003 -0.096701 0.959110
vn -0.041901 0.044901 0.998112
vn -0.041901 0.044901 0.998112
vn -0.970403 -0.240001 0.026800
vn -0.942113 -0.187303 -0.278104
vn 0.266198 0.086899 -0.959993
vn 0.090103 0.034401 -0.995338
vn 0.942004 0.322801 0.091800
vn 0.942004 0.322801 0.091800
vn 0.950026 0.210406 0.230606
vn 0.266198 0.086899 -0.959993
vn -0.970403 -0.240001 0.026800
vn -0.041901 0.044901 0.998112
vn -0.125797 0.095198 0.987478
vn -0.125797 0.095198 0.987478
vn -0.972079 -0.215395 -0.093098
vn -0.970403 -0.240001 0.026800
vn 0.090103 0.034401 -0.995338
vn 0.265005 0.116202 -0.957220
vn 0.913024 0.304508 0.271407
vn 0.913024 0.304508 0.271407
vn 0.942004 0.322801 0.091800
vn 0.090103 0.034401 -0.995338
vn -0.972079 -0.215395 -0.093098
vn -0.125797 0.095198 0.987478
vn -0.296500 0.074800 0.952099
vn -0.296500 0.074800 0.952099
vn -0.963422 -0.111903 -0.243506
vn -0.972079 -0.215395 -0.093098
vn 0.228807 0.161805 -0.959930
vn 0.903848 0.353719 0.240713
vn 0.913024 0.304508 0.271407
vn 0.913024 0.304508 0.271407
vn 0.265005 0.116202 -0.957220
vn 0.228807 0.161805 -0.959930
vn -0.443410 0.465410 -0.766017
vn -0.963422 -0.111903 -0.243506
vn -0.296500 0.074800 0.952099
vn -0.296500 0.074800 0.952099
vn -0.755587 0.523691 0.393493
vn -0.443410 0.465410 -0.766017
vn -0.443410 0.465410 -0.766017
vn -0.755587 0.523691 0.393493
vn 0.174902 0.749308 0.638707
vn 0.174902 0.749308 0.638707
vn 0.679004 0.659504 -0.322502
vn -0.443410 0.465410 -0.766017
vn 0.679004 0.659504 -0.322502
vn 0.174902 0.749308 0.638707
vn 0.903848 0.353719 0.240713
vn 0.903848 0.353719 0.240713
vn 0.228807 0.161805 -0.959930
vn 0.679004 0.659504 -0.322502
s off
g polySurface1868 polySurface1862
usemtl lambert6SG
f 1/1/1 2/2/2 3/3/3
f 3/4/4 4/5/5 1/6/6
f 5/7/7 6/8/8 3/9/9
f 3/10/10 2/11/11 5/12/12
f 7/13/13 8/14/14 6/15/15
f 6/16/16 5/17/17 7/18/18
f 9/19/19 10/20/20 8/21/21
f 8/22/22 7/23/23 9/24/24
f 11/25/25 12/26/26 10/27/27
f 10/28/28 9/29/29 11/30/30
f 13/31/31 14/32/32 12/33/33
f 12/34/34 11/35/35 13/36/36
f 15/37/37 16/38/38 14/39/39
f 14/40/40 13/41/41 15/42/42
f 17/43/43 18/44/44 19/45/45
f 19/46/46 20/47/47 17/48/48
f 21/49/49 18/50/50 17/51/51
f 17/52/52 22/53/53 21/54/54
f 23/55/55 21/56/56 22/57/57
f 22/58/58 24/59/59 23/60/60
f 25/61/61 23/62/62 24/63/63
f 24/64/64 26/65/65 25/66/66
f 27/67/67 25/68/68 26/69/69
f 26/70/70 28/71/71 27/72/72
f 29/73/73 27/74/74 28/75/75
f 28/76/76 30/77/77 29/78/78
f 31/79/79 29/80/80 30/81/81
f 30/82/82 32/83/83 31/84/84
f 1/85/85 19/86/86 18/87/87
f 18/88/88 2/89/89 1/90/90
f 3/91/91 17/92/92 20/93/93
f 20/94/94 4/95/95 3/96/96
f 4/97/97 20/98/98 19/99/99
f 19/100/100 1/101/101 4/102/102
f 2/103/103 18/104/104 21/105/105
f 21/106/106 5/107/107 2/108/108
f 6/109/109 22/110/110 17/111/111
f 17/112/112 3/113/113 6/114/114
f 5/115/115 21/116/116 23/117/117
f 23/118/118 7/119/119 5/120/120
f 8/121/121 24/122/122 22/123/123
f 22/124/124 6/125/125 8/126/126
f 7/127/127 23/128/128 25/129/129
f 25/130/130 9/131/131 7/132/132
f 8/133/133 10/134/134 26/135/135
f 26/136/136 24/137/137 8/138/138
f 9/139/139 25/140/140 27/141/141
f 27/142/142 11/143/143 9/144/144
f 10/145/145 12/146/146 28/147/147
f 28/148/148 26/149/149 10/150/150
f 11/151/151 27/152/152 29/153/153
f 29/154/154 13/155/155 11/156/156
f 14/157/157 30/158/158 28/159/159
f 28/160/160 12/161/161 14/162/162
f 15/163/163 13/164/164 29/165/165
f 29/166/166 31/167/167 15/168/168
f 15/169/169 31/170/170 32/171/171
f 32/172/172 16/173/173 15/174/174
f 16/175/175 32/176/176 30/177/177
f 30/178/178 14/179/179 16/180/180
